<svg xmlns="http://www.w3.org/2000/svg" xmlns:xlink="http://www.w3.org/1999/xlink" viewBox="0 0 292.34 127.53"><defs><style>.cls-1{fill:url(#linear-gradient);}.cls-2{fill:url(#linear-gradient-2);}.cls-3{fill:url(#linear-gradient-3);}.cls-4{fill:url(#linear-gradient-4);}</style><linearGradient id="linear-gradient" x1="6.15" y1="18.29" x2="127.58" y2="100.2" gradientTransform="matrix(1, 0, 0, -1, 0, 128)" gradientUnits="userSpaceOnUse"><stop offset="0" stop-color="#cb264e"/><stop offset="0.61" stop-color="#b11d41"/><stop offset="0.76" stop-color="#911331"/></linearGradient><linearGradient id="linear-gradient-2" x1="75.53" y1="84.1" x2="190.03" y2="84.1" gradientTransform="matrix(1, 0, 0, -1, 0, 128)" gradientUnits="userSpaceOnUse"><stop offset="0" stop-color="#cb264e"/><stop offset="0.59" stop-color="#b11d41"/><stop offset="0.82" stop-color="#911331"/></linearGradient><linearGradient id="linear-gradient-3" x1="166.28" y1="18.05" x2="258.25" y2="84.88" xlink:href="#linear-gradient-2"/><linearGradient id="linear-gradient-4" x1="240.72" y1="55.75" x2="290.46" y2="85.94" gradientTransform="matrix(1, 0, 0, -1, 0, 128)" gradientUnits="userSpaceOnUse"><stop offset="0" stop-color="#cb264e"/><stop offset="1" stop-color="#911331"/></linearGradient></defs><title>Asset 1</title><g id="Layer_2" data-name="Layer 2"><g id="Layer_1-2" data-name="Layer 1"><g id="Layer_2-2" data-name="Layer 2-2"><path class="cls-1" d="M47,90.8c-1.1,2-19,29-34,6-1.55-2.37-5-8-9-23-.37-1.37-4-5-4,4,0,0-2,43,28,49,0,0,20,9,48-36,1.18-1.9,15-28,24-36,1.67-1.49,19-16,32.5,5.06,4,6.27,4.5-18.06,4.5-18.06l-29-19-22,5-6.5,5.5S72.56,45.3,47,90.8Z"/><path class="cls-2" d="M188.88,68.8S173,84.8,152,38.8c-1.71-3.75-21-45-45-38-3.84,1.12-11.5,3.5-31.5,39.5,0,0,16.5-18.5,36.5-4.5,3,2.07,12,9,35.14,46.66,2,3.26,26.86,5.34,26.86,5.34l16-12Z"/><path class="cls-3" d="M216,30.8a93.52,93.52,0,0,1-31,41c-1.14.84-21,18-40,6-1.89-1.2,19,36,34,36,9,0,17-8,37-36,1.64-2.3,14-23,24-22,0,0,13.5-1.5,31.5,24.5,2.05,3,.5-10.5.5-10.5l-22-38-23-8Z"/><path class="cls-4" d="M292,106.8s-22-94-55-100c0,0-14-2-23,30-1.21,4.3,10-43,72,68C291.74,115,293,110.8,292,106.8Z"/></g></g></g></svg>