<svg xmlns="http://www.w3.org/2000/svg" xmlns:xlink="http://www.w3.org/1999/xlink" viewBox="0 0 645.78 127.53">
    <defs>
        <style>
        .cls-1 {
            fill: url(#linear-gradient);
        }

        .cls-2 {
            fill: url(#linear-gradient-2);
        }

        .cls-3 {
            fill: url(#linear-gradient-3);
        }

        .cls-4 {
            fill: url(#linear-gradient-4);
        }

        .cls-5 {
            fill: #fff;
        }

        .cls-6 {
            fill: #c92651;
        }
        </style>
        <linearGradient id="linear-gradient" x1="6.15" y1="109.71" x2="127.58" y2="27.8" gradientUnits="userSpaceOnUse">
            <stop offset="0" stop-color="#cb264e" />
            <stop offset="0.61" stop-color="#b11d41" />
            <stop offset="0.76" stop-color="#911331" />
        </linearGradient>
        <linearGradient id="linear-gradient-2" x1="75.53" y1="43.9" x2="190.03" y2="43.9" gradientUnits="userSpaceOnUse">
            <stop offset="0" stop-color="#cb264e" />
            <stop offset="0.59" stop-color="#b11d41" />
            <stop offset="0.82" stop-color="#911331" />
        </linearGradient>
        <linearGradient id="linear-gradient-3" x1="166.28" y1="109.94" x2="258.25" y2="43.12" xlink:href="#linear-gradient-2" />
        <linearGradient id="linear-gradient-4" x1="240.7" y1="72.26" x2="290.44" y2="42.07" gradientUnits="userSpaceOnUse">
            <stop offset="0" stop-color="#cb264e" />
            <stop offset="1" stop-color="#911331" />
        </linearGradient>
    </defs>
    <title>Asset 3</title>
    <g id="Layer_2" data-name="Layer 2">
        <g id="Layer_2-2" data-name="Layer 2">
            <path class="cls-1" d="M47,90.8c-1.1,2-19,29-34,6-1.55-2.37-5-8-9-23-.37-1.37-4-5-4,4,0,0-2,43,28,49,0,0,20,9,48-36,1.18-1.9,15-28,24-36,1.67-1.49,19-16,32.5,5.06,4,6.27,4.5-18.06,4.5-18.06l-29-19-22,5-6.5,5.5S72.53,45.3,47,90.8Z" />
            <path class="cls-2" d="M188.85,68.8S173,84.8,152,38.8c-1.71-3.75-21-45-45-38-3.84,1.12-11.5,3.5-31.5,39.5,0,0,16.5-18.5,36.5-4.5,3,2.07,12,9,35.14,46.66,2,3.26,26.86,5.34,26.86,5.34l16-12Z" />
            <path class="cls-3" d="M216,30.8a93.47,93.47,0,0,1-31,41c-1.14.84-21,18-40,6-1.89-1.2,19,36,34,36,9,0,17-8,37-36,1.64-2.3,14-23,24-22,0,0,13.5-1.5,31.5,24.5,2.05,3,.5-10.5.5-10.5l-22-38-23-8Z" />
            <path class="cls-4" d="M292,106.8s-22-94-55-100c0,0-14-2-23,30-1.21,4.3,10-43,72,68C291.71,115,293,110.8,292,106.8Z" />
            <path class="cls-5" d="M372.26,50.82q3.15,3.15,3.15,9.45V76.58h-8.26v-15a7.74,7.74,0,0,0-1.4-5,5,5,0,0,0-4-1.67,5.91,5.91,0,0,0-4.61,1.88q-1.69,1.88-1.69,5.59V76.58h-8.26v-15q0-6.72-5.4-6.72a5.81,5.81,0,0,0-4.55,1.88c-1.14,1.25-1.7,3.11-1.7,5.59V76.58h-8.26V48.09h7.89v3.29a10.54,10.54,0,0,1,3.89-2.76,13.22,13.22,0,0,1,5.06-.95,12.28,12.28,0,0,1,5.45,1.19,9.66,9.66,0,0,1,3.92,3.47,11.74,11.74,0,0,1,4.42-3.44,14,14,0,0,1,5.85-1.22A11.48,11.48,0,0,1,372.26,50.82Z" />
            <path class="cls-5" d="M404.48,50.82Q408,54,408,60.33V76.58H400.3V73q-2.32,4-8.68,4a13.54,13.54,0,0,1-5.7-1.12,8.5,8.5,0,0,1-3.68-3.07A8,8,0,0,1,381,68.37a7.4,7.4,0,0,1,3-6.24q3-2.28,9.24-2.28h6.56a5.28,5.28,0,0,0-1.64-4.16,7.23,7.23,0,0,0-4.92-1.45,14.32,14.32,0,0,0-4.48.71A11.94,11.94,0,0,0,385,56.88l-3-5.77a18.09,18.09,0,0,1,5.59-2.54,25,25,0,0,1,6.7-.9Q400.94,47.67,404.48,50.82Zm-7,19.65a5.38,5.38,0,0,0,2.33-2.89V64.67h-5.66Q389,64.67,389,68a3,3,0,0,0,1.25,2.52,5.57,5.57,0,0,0,3.41.93A7.22,7.22,0,0,0,397.44,70.47Z" />
            <path class="cls-5" d="M415.92,42.8a4.49,4.49,0,0,1,0-6.57,5.25,5.25,0,0,1,3.71-1.32,5.35,5.35,0,0,1,3.7,1.27,4.06,4.06,0,0,1,1.43,3.18,4.47,4.47,0,0,1-1.43,3.41,5.17,5.17,0,0,1-3.7,1.35A5.25,5.25,0,0,1,415.92,42.8Zm-.42,5.29h8.26V76.58H415.5Z" />
            <path class="cls-5" d="M457.3,50.85q3.26,3.18,3.26,9.42V76.58H452.3v-15a7.46,7.46,0,0,0-1.48-5,5.45,5.45,0,0,0-4.29-1.67,6.57,6.57,0,0,0-5,1.93C440.31,58,439.7,60,439.7,62.5V76.58h-8.26V48.09h7.89v3.34a10.89,10.89,0,0,1,4.07-2.78,14.31,14.31,0,0,1,5.35-1A11.71,11.71,0,0,1,457.3,50.85Z" />
            <path class="cls-5" d="M470.43,75.87a14.11,14.11,0,0,1-4.84-2.46l1.69-3a14.2,14.2,0,0,0,4.4,2.25,17.51,17.51,0,0,0,5.51.87,10.48,10.48,0,0,0,5.64-1.19A3.79,3.79,0,0,0,484.65,69a3,3,0,0,0-1-2.41,6.7,6.7,0,0,0-2.55-1.32A37.69,37.69,0,0,0,477,64.4a46.73,46.73,0,0,1-5.46-1.29,8.11,8.11,0,0,1-3.52-2.25,6.28,6.28,0,0,1-1.45-4.4,6.89,6.89,0,0,1,2.91-5.72q2.91-2.22,8.1-2.22a21.31,21.31,0,0,1,5.4.71,15.2,15.2,0,0,1,4.45,1.88l-1.64,3a14.06,14.06,0,0,0-8.21-2.38A9.51,9.51,0,0,0,472.18,53a3.88,3.88,0,0,0-1.82,3.33,3.31,3.31,0,0,0,1,2.55A6.39,6.39,0,0,0,474,60.3a41.54,41.54,0,0,0,4.23.93,46.21,46.21,0,0,1,5.35,1.27A7.75,7.75,0,0,1,487,64.67a5.92,5.92,0,0,1,1.43,4.23,6.73,6.73,0,0,1-3,5.8q-3,2.14-8.45,2.15A21.52,21.52,0,0,1,470.43,75.87Z" />
            <path class="cls-5" d="M510,74.89a7.15,7.15,0,0,1-2.62,1.45,10.49,10.49,0,0,1-3.26.51,8.18,8.18,0,0,1-6-2.12,8.1,8.1,0,0,1-2.12-6V51.91h-5V48.73h5V42.64h3.76v6.09h8.48v3.18h-8.48V68.53A5.26,5.26,0,0,0,501,72.32a4.74,4.74,0,0,0,3.57,1.3,7.08,7.08,0,0,0,2.25-.37,5.57,5.57,0,0,0,1.88-1.06Z" />
            <path class="cls-5" d="M524.39,50a13.34,13.34,0,0,1,6.49-1.43v3.65l-.9-.05a8.87,8.87,0,0,0-6.88,2.7q-2.49,2.7-2.49,7.57V76.58h-3.76V48.73h3.6v5.45A9.05,9.05,0,0,1,524.39,50Z" />
            <path class="cls-5" d="M561.64,63.82H538.35a10,10,0,0,0,3.33,7,11.08,11.08,0,0,0,7.63,2.67,12,12,0,0,0,4.76-.93,10.29,10.29,0,0,0,3.76-2.72L560,72.29a11.84,11.84,0,0,1-4.63,3.39,15.67,15.67,0,0,1-6.12,1.17A15.46,15.46,0,0,1,541.6,75,13.08,13.08,0,0,1,536.44,70a14.36,14.36,0,0,1-1.85-7.3,15,15,0,0,1,1.77-7.31,12.88,12.88,0,0,1,4.87-5,13.62,13.62,0,0,1,7-1.8,13.47,13.47,0,0,1,6.94,1.8,12.81,12.81,0,0,1,4.82,5,15.14,15.14,0,0,1,1.75,7.34Zm-20.2-9.5A10,10,0,0,0,538.35,61H558.1a10.08,10.08,0,0,0-3.1-6.69,10.23,10.23,0,0,0-13.56,0Z" />
            <path class="cls-5" d="M586.69,51.24c1.94,1.82,2.91,4.52,2.91,8.08V76.58H586V72.24a8.61,8.61,0,0,1-3.73,3.39,13.08,13.08,0,0,1-5.85,1.22A11.44,11.44,0,0,1,569,74.62,7.65,7.65,0,0,1,568.82,63q2.56-2.18,8.18-2.17h8.84v-1.7a7.14,7.14,0,0,0-2-5.48A8.32,8.32,0,0,0,578,51.8a15,15,0,0,0-5.08.87,13,13,0,0,0-4.18,2.41l-1.7-2.8a15,15,0,0,1,5.09-2.78,19.51,19.51,0,0,1,6.24-1Q583.78,48.52,586.69,51.24Zm-4.24,21.18a8.63,8.63,0,0,0,3.39-4.2V63.66h-8.73q-7.15,0-7.15,5a4.55,4.55,0,0,0,1.85,3.84,8.49,8.49,0,0,0,5.19,1.4A9.8,9.8,0,0,0,582.45,72.42Z" />
            <path class="cls-5" d="M642.79,51.54c2,2,3,5,3,8.89V76.58H642V60.8c0-2.89-.69-5.1-2.09-6.62a7.63,7.63,0,0,0-5.9-2.27,8.87,8.87,0,0,0-6.83,2.67A10.42,10.42,0,0,0,624.71,62V76.58H621V60.8q0-4.34-2.09-6.62a7.72,7.72,0,0,0-6-2.27,8.88,8.88,0,0,0-6.8,2.67A10.35,10.35,0,0,0,603.58,62V76.58h-3.76V48.73h3.6v5.08a10.13,10.13,0,0,1,4.13-3.92,13.13,13.13,0,0,1,6.09-1.37A12,12,0,0,1,619.71,50a9.05,9.05,0,0,1,3.83,4.4A10.85,10.85,0,0,1,628,50.08a13.62,13.62,0,0,1,6.59-1.56C638.05,48.52,640.8,49.52,642.79,51.54Z" />
            <path class="cls-6" d="M329.59,100.66a5.46,5.46,0,0,1-2.1-2,6,6,0,0,1,0-5.82,5.42,5.42,0,0,1,2.11-2,6.56,6.56,0,0,1,5.39-.3,4.8,4.8,0,0,1,1.84,1.29l-1,1a4.11,4.11,0,0,0-3.12-1.32,4.54,4.54,0,0,0-2.24.56,4.09,4.09,0,0,0-1.56,1.53,4.52,4.52,0,0,0,0,4.36,4.09,4.09,0,0,0,1.56,1.53,4.54,4.54,0,0,0,2.24.56,4.12,4.12,0,0,0,3.12-1.34l1,1A4.82,4.82,0,0,1,335,101a6.53,6.53,0,0,1-5.4-.29Z" />
            <path class="cls-6" d="M346,97.58h-6.82a2.68,2.68,0,0,0,1,1.78,3.2,3.2,0,0,0,2.07.67,3.16,3.16,0,0,0,2.43-1l.84,1a3.75,3.75,0,0,1-1.42,1,5.34,5.34,0,0,1-4.26-.2,3.91,3.91,0,0,1-1.59-1.53,4.37,4.37,0,0,1-.57-2.22,4.53,4.53,0,0,1,.55-2.21,4,4,0,0,1,1.51-1.53,4.33,4.33,0,0,1,2.16-.54,4.26,4.26,0,0,1,2.15.54,3.86,3.86,0,0,1,1.47,1.53,4.63,4.63,0,0,1,.54,2.26C346,97.23,346,97.38,346,97.58Zm-6-2.84a2.7,2.7,0,0,0-.87,1.74h5.4a2.75,2.75,0,0,0-.87-1.74,2.64,2.64,0,0,0-1.83-.67A2.6,2.6,0,0,0,340,94.74Z" />
            <path class="cls-6" d="M354.29,94.2h-3.07v7.07H349.7V94.2h-3.08V92.87h7.67Z" />
            <path class="cls-6" d="M362.18,96.45a2.84,2.84,0,0,1-.08,4.11,3.92,3.92,0,0,1-2.61.73l-3.64,0v-8.4h1.52V95.7l2.36,0A3.75,3.75,0,0,1,362.18,96.45Zm-1.25,3.27a1.55,1.55,0,0,0,.53-1.27,1.42,1.42,0,0,0-.51-1.21,2.78,2.78,0,0,0-1.58-.39l-2,0v3.3l2,0A2.4,2.4,0,0,0,360.93,99.72Z" />
            <path class="cls-6" d="M375.61,93.67A3.72,3.72,0,0,1,377,95.13a4.55,4.55,0,0,1,0,4.28,3.74,3.74,0,0,1-1.54,1.46,4.74,4.74,0,0,1-2.26.53,4,4,0,0,1-3.3-1.47,6.47,6.47,0,0,1-1.17-4.13,6.79,6.79,0,0,1,1.06-4,5.22,5.22,0,0,1,3.25-2l3.84-.85.22,1.39-3.53.76a4.69,4.69,0,0,0-2.46,1.24,4,4,0,0,0-.92,2.51,3.69,3.69,0,0,1,1.4-1.26,4.16,4.16,0,0,1,1.91-.44A4.27,4.27,0,0,1,375.61,93.67Zm-.93,6.09a2.52,2.52,0,0,0,1-1,3,3,0,0,0,.35-1.47,2.63,2.63,0,0,0-2.76-2.78,2.71,2.71,0,0,0-2,.77,2.65,2.65,0,0,0-.77,2,3,3,0,0,0,.36,1.47,2.51,2.51,0,0,0,1,1,2.95,2.95,0,0,0,2.86,0Z" />
            <path class="cls-6" d="M386.88,92.87v8.4h-1.52V94.2h-3.62l-.09,1.87a19.35,19.35,0,0,1-.3,2.83,4.48,4.48,0,0,1-.73,1.82,1.67,1.67,0,0,1-1.41.68,3.82,3.82,0,0,1-.94-.14l.1-1.29a1.73,1.73,0,0,0,.38,0,1,1,0,0,0,.95-.56,3.48,3.48,0,0,0,.41-1.31c.06-.51.12-1.23.18-2.18l.14-3.1Z" />
            <path class="cls-6" d="M391.18,100.81a4,4,0,0,1-1.56-1.53,4.64,4.64,0,0,1,0-4.42,4,4,0,0,1,1.56-1.53,5,5,0,0,1,4.5,0,4.07,4.07,0,0,1,1.55,1.53,4.64,4.64,0,0,1,0,4.42,4.07,4.07,0,0,1-1.55,1.53,4.8,4.8,0,0,1-4.5,0Zm3.7-1.15a2.62,2.62,0,0,0,1-1,3.18,3.18,0,0,0,.36-1.54,3.25,3.25,0,0,0-.36-1.55,2.59,2.59,0,0,0-1-1,3.1,3.1,0,0,0-2.9,0,2.59,2.59,0,0,0-1,1,3.15,3.15,0,0,0-.38,1.55,3.08,3.08,0,0,0,.38,1.54,2.62,2.62,0,0,0,1,1,3,3,0,0,0,2.9,0Z" />
            <path class="cls-6" d="M406.18,94.2h-4.66v7.07H400v-8.4h6.18Z" />
            <path class="cls-6" d="M413.92,94.2h-4.66v7.07h-1.53v-8.4h6.19Z" />
            <path class="cls-6" d="M422.67,97.58h-6.82a2.64,2.64,0,0,0,1,1.78,3.47,3.47,0,0,0,4.5-.34l.84,1a3.75,3.75,0,0,1-1.42,1,5.34,5.34,0,0,1-4.26-.2,4,4,0,0,1-1.6-1.53,4.7,4.7,0,0,1,0-4.43,4,4,0,0,1,1.51-1.53,4.57,4.57,0,0,1,4.31,0,3.86,3.86,0,0,1,1.47,1.53,4.63,4.63,0,0,1,.54,2.26C422.71,97.23,422.69,97.38,422.67,97.58Zm-5.95-2.84a2.7,2.7,0,0,0-.87,1.74h5.4a2.75,2.75,0,0,0-.87-1.74,2.64,2.64,0,0,0-1.83-.67A2.6,2.6,0,0,0,416.72,94.74Z" />
            <path class="cls-6" d="M431.71,93.33a3.85,3.85,0,0,1,1.52,1.5,4.92,4.92,0,0,1,0,4.48,3.9,3.9,0,0,1-1.52,1.52,4.39,4.39,0,0,1-2.19.54,3.9,3.9,0,0,1-1.65-.35,3.43,3.43,0,0,1-1.28-1v4.35h-1.52V92.87h1.46V94.2a3.21,3.21,0,0,1,1.28-1.06,4.18,4.18,0,0,1,1.71-.35A4.39,4.39,0,0,1,431.71,93.33Zm-.86,6.33a2.69,2.69,0,0,0,1-1,3.08,3.08,0,0,0,.38-1.54,3.15,3.15,0,0,0-.38-1.55,2.66,2.66,0,0,0-1-1,2.91,2.91,0,0,0-1.45-.36,2.81,2.81,0,0,0-1.44.37,2.73,2.73,0,0,0-1,1,3.08,3.08,0,0,0-.38,1.54,3.19,3.19,0,0,0,.37,1.54,2.62,2.62,0,0,0,1,1,2.87,2.87,0,0,0,1.45.37A2.82,2.82,0,0,0,430.85,99.66Z" />
            <path class="cls-6" d="M437.33,100.81a4.05,4.05,0,0,1-1.57-1.53,4.64,4.64,0,0,1,0-4.42,4.05,4.05,0,0,1,1.57-1.53,4.94,4.94,0,0,1,4.49,0,4.09,4.09,0,0,1,1.56,1.53,4.64,4.64,0,0,1,0,4.42,4.09,4.09,0,0,1-1.56,1.53,4.78,4.78,0,0,1-4.49,0Zm3.7-1.15a2.69,2.69,0,0,0,1-1,3.18,3.18,0,0,0,.36-1.54,3.25,3.25,0,0,0-.36-1.55,2.66,2.66,0,0,0-1-1,3.1,3.1,0,0,0-2.9,0,2.68,2.68,0,0,0-1,1,3.14,3.14,0,0,0-.37,1.55,3.08,3.08,0,0,0,.37,1.54,2.71,2.71,0,0,0,1,1,3,3,0,0,0,2.9,0Z" />
            <path class="cls-6" d="M453.5,99a2,2,0,0,1-.83,1.72,4.24,4.24,0,0,1-2.48.6h-4.05v-8.4H450a4.16,4.16,0,0,1,2.34.56,1.8,1.8,0,0,1,.84,1.59,1.86,1.86,0,0,1-.36,1.15,2.27,2.27,0,0,1-1,.74A1.93,1.93,0,0,1,453.5,99Zm-5.87-2.47h2.29a2.22,2.22,0,0,0,1.32-.32,1,1,0,0,0,.45-.92q0-1.2-1.77-1.2h-2.29Zm3.87,3.32a1,1,0,0,0,.48-.94,1.13,1.13,0,0,0-.44-1,2.35,2.35,0,0,0-1.37-.31h-2.54v2.52h2.45A2.68,2.68,0,0,0,451.5,99.8Z" />
        </g>
    </g>
</svg>